<svg xmlns="http://www.w3.org/2000/svg" xml:space="preserve" style="enable-background:new 0 0 500 500" viewBox="0 0 500 500"><g style="opacity:.61"><path d="m213.765 461.172-5.561 12.845h-2.936l-5.542-12.845h3.212l3.908 9.175 3.964-9.175zM223.507 469.741h-7.469c.275 1.23 1.321 1.982 2.826 1.982 1.046 0 1.798-.312 2.477-.954l1.523 1.651c-.917 1.046-2.294 1.597-4.074 1.597-3.413 0-5.634-2.147-5.634-5.083 0-2.954 2.257-5.083 5.267-5.083 2.899 0 5.138 1.945 5.138 5.12.001.22-.035.532-.054.77m-7.505-1.67h4.863c-.202-1.248-1.138-2.055-2.422-2.055-1.304 0-2.239.789-2.441 2.055M224.735 468.934c0-2.973 2.294-5.083 5.505-5.083 2.074 0 3.707.899 4.423 2.514l-2.22 1.193c-.532-.936-1.321-1.358-2.221-1.358-1.45 0-2.587 1.009-2.587 2.734s1.138 2.734 2.587 2.734c.899 0 1.688-.404 2.221-1.358l2.22 1.211c-.716 1.578-2.349 2.495-4.423 2.495-3.211.001-5.505-2.109-5.505-5.082M242.828 473.393c-.587.422-1.45.624-2.331.624-2.33 0-3.688-1.193-3.688-3.542v-4.055h-1.523v-2.202h1.523v-2.404h2.863v2.404h2.459v2.202h-2.459v4.019c0 .844.458 1.303 1.229 1.303.422 0 .844-.128 1.156-.367l.771 2.018zM262.474 463.997v2.643c-.238-.018-.422-.037-.642-.037-1.578 0-2.624.862-2.624 2.753v4.661h-2.863v-9.873h2.734v1.303c.697-.954 1.872-1.45 3.395-1.45M263.299 472.53l1.009-2.239c1.083.789 2.697 1.339 4.239 1.339 1.762 0 2.477-.587 2.477-1.376 0-2.404-7.469-.752-7.469-5.524 0-2.184 1.762-4 5.413-4 1.615 0 3.267.385 4.459 1.138l-.918 2.257c-1.193-.679-2.422-1.009-3.56-1.009-1.761 0-2.44.66-2.44 1.468 0 2.367 7.468.734 7.468 5.45 0 2.147-1.78 3.982-5.45 3.982-2.035.001-4.09-.605-5.228-1.486M285.428 469.741h-7.469c.275 1.23 1.321 1.982 2.826 1.982 1.046 0 1.798-.312 2.477-.954l1.523 1.651c-.918 1.046-2.294 1.597-4.074 1.597-3.413 0-5.634-2.147-5.634-5.083 0-2.954 2.257-5.083 5.267-5.083 2.9 0 5.138 1.945 5.138 5.12.002.22-.035.532-.054.77m-7.505-1.67h4.863c-.202-1.248-1.138-2.055-2.422-2.055-1.303 0-2.239.789-2.441 2.055M297.007 469.741h-7.469c.275 1.23 1.321 1.982 2.826 1.982 1.046 0 1.798-.312 2.477-.954l1.523 1.651c-.918 1.046-2.294 1.597-4.074 1.597-3.413 0-5.634-2.147-5.634-5.083 0-2.954 2.257-5.083 5.267-5.083 2.899 0 5.138 1.945 5.138 5.12.001.22-.036.532-.054.77m-7.506-1.67h4.863c-.202-1.248-1.138-2.055-2.422-2.055-1.303 0-2.239.789-2.441 2.055M303.208 470.145l-1.377 1.358v2.514h-2.862v-13.616h2.862v7.707l4.185-3.964h3.413l-4.111 4.184 4.478 5.689h-3.469zM256.601 475.359l-2.86-2.86a6.057 6.057 0 0 1-1.534 1.284 5.127 5.127 0 0 1-.283.199l3.027 3.027a1.166 1.166 0 1 0 1.65-1.65" style="fill:#fff"/><path d="M249.984 463.244a1.288 1.288 0 0 1 .921-.275 1.285 1.285 0 0 0-1.745.209c-.051 0-.1.006-.151.008a.56.56 0 0 0 .064-.255.563.563 0 0 0-.346-.519.78.78 0 0 1 .057.786 5.417 5.417 0 0 0 .39 10.82 5.42 5.42 0 0 0 5.42-5.42 5.414 5.414 0 0 0-4.61-5.354m-2.001 1.412c.435 0 .844.112 1.199.309a2.372 2.372 0 0 1 3.083.419 2.47 2.47 0 0 0-3.09-.131 2.46 2.46 0 0 0-1.464-.478c-.3 0-.588.054-.854.152a2.469 2.469 0 0 1 1.126-.271m3.789 4.442c.115.305.181.634.181.979a2.777 2.777 0 0 1-5.555 0c0-.345.066-.674.181-.979a2.165 2.165 0 0 1 1.133-4.014c.565 0 1.078.218 1.463.572a2.159 2.159 0 0 1 1.464-.572 2.165 2.165 0 0 1 1.133 4.014" style="fill:#fff"/><path d="M251.666 467.061a.902.902 0 1 1-.614-.854.494.494 0 0 0 .595.676.809.809 0 0 1 .019.178M248.255 467.061a.681.681 0 1 1-.464-.646.374.374 0 0 0 .45.512.655.655 0 0 1 .014.134M242.908 467.83h.616v.616h-.616zM254.827 467.83h.616v.616h-.616z" style="fill:#fff"/><path d="M255.205 468.082h-.14a5.896 5.896 0 0 0-5.89-5.89 5.896 5.896 0 0 0-5.89 5.89h-.14a5.99 5.99 0 0 1 1.766-4.264 5.99 5.99 0 0 1 4.264-1.766 5.99 5.99 0 0 1 4.264 1.766 5.99 5.99 0 0 1 1.766 4.264" style="fill:#fff"/><path d="M248.868 461.814h.616v.616h-.616z" style="fill:#fff"/><path d="M244.95 462.052h8.45v.14h-8.45z" style="fill:#fff"/><path d="M245.174 462.15a.196.196 0 1 1-.393 0 .196.196 0 0 1 .393 0M253.596 462.15a.196.196 0 1 1-.393 0 .196.196 0 0 1 .393 0M314.356 473.409c0 1.559-2.364 1.559-2.364 0 .001-1.558 2.364-1.558 2.364 0zM161.739 466.549l1.772 6.088 1.855-6.088h2.215l-2.823 8.14h-2.33l-.837-2.396-.722-2.708-.722 2.708-.837 2.396h-2.33l-2.839-8.14h2.231l1.855 6.088 1.756-6.088h1.756zM176.713 466.549l1.772 6.088 1.855-6.088h2.215l-2.823 8.14h-2.33l-.837-2.396-.722-2.708-.722 2.708-.837 2.396h-2.33l-2.839-8.14h2.231l1.855 6.088 1.756-6.088h1.756zM191.687 466.549l1.772 6.088 1.855-6.088h2.215l-2.823 8.14h-2.33l-.837-2.396-.722-2.708-.722 2.708-.837 2.396h-2.33l-2.839-8.14h2.231l1.855 6.088 1.756-6.088h1.756zM200.908 473.52c0 1.559-2.364 1.559-2.364 0 .001-1.558 2.364-1.558 2.364 0zM322.71 473.409c-.935.919-1.919 1.28-3.117 1.28-2.346 0-4.3-1.411-4.3-4.282s1.953-4.284 4.3-4.284c1.149 0 2.035.329 2.921 1.199l-1.264 1.329a2.449 2.449 0 0 0-1.623-.64c-1.346 0-2.33.985-2.33 2.396 0 1.542 1.05 2.362 2.297 2.362.64 0 1.28-.18 1.772-.672l1.344 1.312zM331.805 470.472c0 2.33-1.591 4.217-4.217 4.217-2.626 0-4.201-1.887-4.201-4.217 0-2.314 1.609-4.217 4.185-4.217 2.577 0 4.233 1.903 4.233 4.217zm-6.416 0c0 1.231.739 2.38 2.199 2.38s2.199-1.149 2.199-2.38c0-1.215-.854-2.396-2.199-2.396-1.444.001-2.199 1.182-2.199 2.396zM338.572 474.689v-4.332c0-1.068-.559-2.035-1.658-2.035-1.082 0-1.722.967-1.722 2.035v4.332h-2.003v-8.107h1.855l.148.985c.426-.82 1.362-1.116 2.133-1.116.969 0 1.937.394 2.396 1.51.723-1.149 1.658-1.478 2.708-1.478 2.297 0 3.43 1.412 3.43 3.84v4.365h-2.003v-4.365c0-1.066-.442-1.97-1.526-1.97-1.082 0-1.756.935-1.756 2.003v4.332h-2.002z" style="fill:#fff"/></g><g style="opacity:.61"><path d="M345.988 431.299c-.006-1.224-.959-2.121-2.189-2.14-.924-.014-.832.12-.834-.867-.003-1.097-.007-2.194.003-3.292a1.389 1.389 0 0 0-.362-.976c-2.342-2.668-4.678-5.342-7.019-8.011-.12-.137-.275-.244-.414-.366h-18.641c-.794.293-1.14.868-1.138 1.709.01 3.748.004 7.496.004 11.243 0 .556-.003.589-.55.551-1.497-.102-2.516.986-2.497 2.492.044 3.476.013 6.953.014 10.429.001 1.58.867 2.443 2.45 2.449.582.002.582.002.582.6 0 2.219-.001 4.438.001 6.657.001 1.192.58 1.771 1.768 1.771h24.04c1.168 0 1.755-.583 1.757-1.745.002-2.256 0-4.512.001-6.768 0-.512.002-.511.52-.515.271-.002.541.008.809-.058.996-.246 1.69-1.044 1.694-2.069.016-3.697.018-7.396.001-11.094zm-28.451-14.137h16.01c.548 0 .554.007.554.561.001 2.243-.001 4.486.001 6.73.001.811.249 1.059 1.06 1.059l5.731.001c.458 0 .479.021.481.483.003.887.002 1.775 0 2.662-.001.477-.024.498-.504.499h-23.331c-.55 0-.552-.001-.552-.561v-10.871c0-.559.004-.563.55-.563zm23.285 34.417H317.559c-.572 0-.574-.002-.574-.579-.001-1.997-.001-3.994.001-5.991 0-.464.023-.486.478-.487h23.41c.478 0 .499.02.499.503.002 1.997.001 3.994 0 5.991.002.558-.003.563-.551.563z" style="fill:#fff"/><path d="M327.418 417.053h1.757v1.054h-1.757zM325.662 418.107h1.757v1.054h-1.757zM327.418 419.161h1.757v1.054h-1.757zM325.662 420.215h1.757v1.054h-1.757zM327.418 421.269h1.757v1.054h-1.757zM325.662 422.323h1.757v1.054h-1.757zM327.418 423.378h1.757v1.054h-1.757zM325.662 424.432h1.757v1.054h-1.757zM327.418 425.486h1.757v1.054h-1.757zM325.662 426.54h1.757v1.054h-1.757zM327.418 427.594h1.757v1.054h-1.757zM325.662 428.648h1.757v1.054h-1.757zM187.637 431.299c-.006-1.224-.959-2.121-2.189-2.14-.924-.014-.832.12-.834-.867-.003-1.097-.007-2.194.003-3.292a1.389 1.389 0 0 0-.362-.976c-2.342-2.668-4.678-5.342-7.019-8.011-.12-.137-.275-.244-.414-.366h-18.641c-.794.293-1.14.868-1.138 1.709.01 3.748.004 7.496.004 11.243 0 .556-.003.589-.55.551-1.497-.102-2.516.986-2.497 2.492.044 3.476.013 6.953.014 10.429.001 1.58.867 2.443 2.45 2.449.582.002.582.002.582.6 0 2.219-.001 4.438.001 6.657.001 1.192.58 1.771 1.768 1.771h24.04c1.168 0 1.755-.583 1.757-1.745.002-2.256 0-4.512.001-6.768 0-.512.002-.511.52-.515.271-.002.541.008.809-.058.996-.246 1.69-1.044 1.694-2.069.016-3.697.019-7.396.001-11.094zm-28.45-14.137h16.01c.548 0 .554.007.554.561.001 2.243-.001 4.486.001 6.73.001.811.249 1.059 1.06 1.059l5.731.001c.458 0 .479.021.481.483.003.887.002 1.775 0 2.662-.001.477-.024.498-.504.499h-23.331c-.55 0-.552-.001-.552-.561v-10.871c-.001-.559.003-.563.55-.563zm23.285 34.417H159.209c-.572 0-.574-.002-.574-.579-.001-1.997-.001-3.994.001-5.991 0-.464.023-.486.478-.487h23.41c.478 0 .499.02.499.503.002 1.997.001 3.994 0 5.991.001.558-.004.563-.551.563z" style="fill:#fff"/><path d="M159.779 440.669v-7.897h2.779c.375 0 .726.061 1.053.182.327.121.612.292.855.513a2.392 2.392 0 0 1 .783 1.798c0 .375-.07.715-.21 1.02-.14.305-.331.568-.573.789a2.593 2.593 0 0 1-.855.513 3.01 3.01 0 0 1-1.053.182h-1.29v2.901h-1.489zm2.801-4.313c.39 0 .684-.111.882-.331a1.1 1.1 0 0 0 .298-.761c0-.14-.024-.276-.072-.408a.928.928 0 0 0-.221-.347 1.09 1.09 0 0 0-.37-.237 1.387 1.387 0 0 0-.518-.089h-1.312v2.173h1.313zM166.308 432.771h1.731l3.177 5.294h.088l-.088-1.522v-3.772h1.478v7.897h-1.566l-3.353-5.592h-.088l.088 1.522v4.07h-1.467v-7.897zM177.922 436.334h3.872a3.368 3.368 0 0 1 .077.695c0 .507-.077.985-.231 1.434a3.31 3.31 0 0 1-.728 1.202 3.646 3.646 0 0 1-1.268.871c-.493.206-1.055.309-1.688.309a4.272 4.272 0 0 1-1.622-.309 4.033 4.033 0 0 1-2.217-2.167 4.058 4.058 0 0 1-.331-1.649c0-.595.11-1.145.331-1.649a4.12 4.12 0 0 1 .894-1.307 4.05 4.05 0 0 1 1.323-.86 4.269 4.269 0 0 1 1.622-.309c.64 0 1.211.11 1.715.331a3.86 3.86 0 0 1 1.296.915l-1.025 1.004a2.732 2.732 0 0 0-.861-.623c-.316-.143-.695-.215-1.136-.215a2.76 2.76 0 0 0-1.026.193 2.583 2.583 0 0 0-.85.546 2.6 2.6 0 0 0-.579.855 2.823 2.823 0 0 0-.215 1.119c0 .412.072.785.215 1.12a2.552 2.552 0 0 0 1.439 1.401 2.77 2.77 0 0 0 1.037.193c.419 0 .773-.061 1.064-.182.29-.121.538-.278.744-.469.148-.132.275-.3.381-.502.106-.202.189-.428.248-.678h-2.482v-1.269zM224.019 431.299c-.006-1.224-.959-2.121-2.189-2.14-.924-.014-.832.12-.834-.867-.003-1.097-.007-2.194.003-3.292a1.389 1.389 0 0 0-.362-.976c-2.342-2.668-4.678-5.342-7.019-8.011-.12-.137-.275-.244-.414-.366h-18.641c-.794.293-1.14.868-1.138 1.709.01 3.748.004 7.496.004 11.243 0 .556-.003.589-.55.551-1.497-.102-2.516.986-2.497 2.492.044 3.476.013 6.953.014 10.429.001 1.58.867 2.443 2.45 2.449.582.002.582.002.582.6 0 2.219-.001 4.438.001 6.657.001 1.192.58 1.771 1.768 1.771h24.04c1.168 0 1.755-.583 1.757-1.745.002-2.256 0-4.512.001-6.768 0-.512.002-.511.52-.515.271-.002.541.008.809-.058.997-.246 1.69-1.044 1.694-2.069.016-3.697.018-7.396.001-11.094zm-28.451-14.137h16.01c.548 0 .554.007.554.561.001 2.243-.001 4.486.001 6.73.001.811.249 1.059 1.06 1.059l5.731.001c.458 0 .479.021.481.483.003.887.002 1.775 0 2.662-.001.477-.024.498-.504.499H195.57c-.55 0-.552-.001-.552-.561v-10.871c0-.559.004-.563.55-.563zm23.286 34.417H195.591c-.572 0-.574-.002-.574-.579-.001-1.997-.001-3.994.001-5.991 0-.464.023-.486.478-.487h23.41c.478 0 .499.02.499.503.002 1.997.001 3.994 0 5.991.001.558-.004.563-.551.563z" style="fill:#fff"/><path d="M205.111 432.771h1.699l2.967 7.897h-1.644l-.651-1.886h-3.044l-.651 1.886h-1.643l2.967-7.897zm1.886 4.644-.706-1.974-.287-.96h-.088l-.287.96-.706 1.974h2.074zM211.331 434.536a.917.917 0 0 1-.657-.271.903.903 0 0 1-.27-.656.903.903 0 0 1 .27-.656.909.909 0 0 1 .298-.198.913.913 0 0 1 .359-.072c.257 0 .478.09.662.27.184.181.276.399.276.656s-.092.476-.276.656a.909.909 0 0 1-.662.271zm-.716 6.133v-5.404h1.445v5.404h-1.445zM261.044 431.299c-.006-1.224-.959-2.121-2.189-2.14-.924-.014-.832.12-.834-.867-.003-1.097-.007-2.194.003-3.292a1.389 1.389 0 0 0-.362-.976c-2.342-2.668-4.678-5.342-7.019-8.011-.12-.137-.275-.244-.414-.366h-18.641c-.794.293-1.14.868-1.138 1.709.01 3.748.004 7.496.004 11.243 0 .556-.003.589-.55.551-1.497-.102-2.516.986-2.497 2.492.044 3.476.013 6.953.014 10.429.001 1.58.867 2.443 2.45 2.449.582.002.582.002.582.6 0 2.219-.001 4.438.001 6.657.001 1.192.58 1.771 1.768 1.771h24.04c1.168 0 1.755-.583 1.757-1.745.002-2.256 0-4.512.001-6.768 0-.512.002-.511.52-.515.271-.002.541.008.809-.058.996-.246 1.69-1.044 1.694-2.069.016-3.697.018-7.396.001-11.094zm-28.451-14.137h16.01c.548 0 .554.007.554.561.001 2.243-.001 4.486.001 6.73.001.811.249 1.059 1.06 1.059l5.731.001c.458 0 .479.021.481.483.003.887.002 1.775 0 2.662-.001.477-.024.498-.504.499h-23.331c-.55 0-.552-.001-.552-.561v-10.871c-.001-.559.004-.563.55-.563zm23.285 34.417H232.615c-.572 0-.574-.002-.574-.579-.001-1.997-.001-3.994.001-5.991 0-.464.023-.486.478-.487h23.41c.478 0 .499.02.499.503.002 1.997.001 3.994 0 5.991.002.558-.003.563-.551.563z" style="fill:#fff"/><path d="M236.361 440.845c-.338 0-.662-.048-.971-.143a2.787 2.787 0 0 1-.849-.43 3.01 3.01 0 0 1-.673-.7 3.385 3.385 0 0 1-.452-.965l1.401-.551c.103.397.283.726.54.987.257.261.596.392 1.015.392.154 0 .303-.02.447-.061.143-.04.272-.099.386-.176s.204-.175.27-.292a.822.822 0 0 0 .099-.408.99.99 0 0 0-.077-.397.941.941 0 0 0-.259-.331 2.31 2.31 0 0 0-.475-.298 7.293 7.293 0 0 0-.722-.298l-.485-.176a3.669 3.669 0 0 1-.645-.298 2.853 2.853 0 0 1-.59-.452 2.213 2.213 0 0 1-.436-.623 1.858 1.858 0 0 1-.171-.81 2.069 2.069 0 0 1 .7-1.572c.224-.202.492-.36.805-.474s.66-.171 1.042-.171c.397 0 .74.053 1.031.16.291.107.537.243.739.408.202.165.366.348.491.546.125.199.217.386.276.563l-1.312.551a1.41 1.41 0 0 0-.402-.596c-.195-.176-.462-.265-.8-.265-.324 0-.592.075-.805.226a.694.694 0 0 0-.32.59c0 .235.103.436.309.601.206.165.533.325.982.48l.497.165c.316.111.605.237.866.381.261.143.485.314.673.513a2.1 2.1 0 0 1 .43.678c.1.254.149.546.149.877 0 .412-.083.767-.248 1.064a2.283 2.283 0 0 1-.634.734 2.754 2.754 0 0 1-.872.43 3.445 3.445 0 0 1-.95.141zM239.516 432.771h1.61l1.633 4.754.287 1.015h.088l.309-1.015 1.699-4.754h1.61l-2.879 7.897h-1.566l-2.791-7.897zM251.097 436.334h3.871a3.145 3.145 0 0 1 .078.695c0 .507-.078.985-.232 1.434a3.31 3.31 0 0 1-.728 1.202 3.636 3.636 0 0 1-1.268.871c-.493.206-1.055.309-1.688.309a4.263 4.263 0 0 1-1.621-.309 4.038 4.038 0 0 1-1.324-.86 4.075 4.075 0 0 1-1.225-2.956c0-.595.11-1.145.331-1.649a4.12 4.12 0 0 1 .894-1.307 4.043 4.043 0 0 1 1.324-.86 4.263 4.263 0 0 1 1.621-.309c.64 0 1.211.11 1.715.331a3.85 3.85 0 0 1 1.296.915l-1.026 1.004a2.72 2.72 0 0 0-.861-.623c-.316-.143-.694-.215-1.136-.215-.36 0-.702.065-1.026.193a2.58 2.58 0 0 0-.849.546c-.243.235-.436.52-.579.855a2.823 2.823 0 0 0-.215 1.119c0 .412.072.785.215 1.12.143.335.338.62.585.855.246.235.531.418.854.546.324.129.669.193 1.037.193.419 0 .774-.061 1.064-.182.29-.121.539-.278.745-.469.147-.132.274-.3.38-.502a2.83 2.83 0 0 0 .248-.678h-2.482v-1.269zM297.3 431.299c-.006-1.224-.959-2.121-2.189-2.14-.924-.014-.832.12-.834-.867-.003-1.097-.007-2.194.003-3.292a1.389 1.389 0 0 0-.362-.976c-2.342-2.668-4.678-5.342-7.019-8.011-.12-.137-.275-.244-.414-.366h-18.641c-.794.293-1.14.868-1.138 1.709.01 3.748.004 7.496.004 11.243 0 .556-.003.589-.55.551-1.497-.102-2.516.986-2.497 2.492.044 3.476.013 6.953.014 10.429.001 1.58.867 2.443 2.45 2.449.582.002.582.002.582.6 0 2.219-.001 4.438.001 6.657.001 1.192.58 1.771 1.768 1.771h24.04c1.168 0 1.755-.583 1.757-1.745.002-2.256 0-4.512.001-6.768 0-.512.002-.511.52-.515.271-.002.541.008.809-.058.996-.246 1.69-1.044 1.694-2.069.016-3.697.019-7.396.001-11.094zm-28.45-14.137h16.01c.548 0 .554.007.554.561.001 2.243-.001 4.486.001 6.73.001.811.249 1.059 1.06 1.059l5.731.001c.458 0 .479.021.481.483.003.887.002 1.775 0 2.662-.001.477-.024.498-.504.499h-23.331c-.55 0-.552-.001-.552-.561v-10.871c-.001-.559.003-.563.55-.563zm23.285 34.417H268.872c-.572 0-.574-.002-.574-.579-.001-1.997-.001-3.994.001-5.991 0-.464.023-.486.478-.487h23.41c.478 0 .499.02.499.503v5.991c.001.558-.004.563-.551.563z" style="fill:#fff"/><path d="M272.966 434.183v1.831h3.165v1.412h-3.165v1.831h3.518v1.412h-5.007v-7.897h5.007v1.412h-3.518zM277.852 440.669v-7.897h2.779c.375 0 .726.061 1.053.182.327.121.612.292.855.513a2.392 2.392 0 0 1 .783 1.798c0 .375-.07.715-.209 1.02-.14.305-.331.568-.574.789a2.593 2.593 0 0 1-.855.513 3.01 3.01 0 0 1-1.053.182h-1.29v2.901h-1.489zm2.801-4.313c.389 0 .684-.111.882-.331a1.1 1.1 0 0 0 .298-.761c0-.14-.024-.276-.072-.408a.928.928 0 0 0-.221-.347 1.08 1.08 0 0 0-.37-.237 1.387 1.387 0 0 0-.518-.089h-1.312v2.173h1.313zM286.797 440.845c-.338 0-.662-.048-.971-.143a2.787 2.787 0 0 1-.849-.43 2.99 2.99 0 0 1-.673-.7 3.385 3.385 0 0 1-.452-.965l1.401-.551c.103.397.283.726.541.987.257.261.595.392 1.015.392.154 0 .303-.02.447-.061a1.32 1.32 0 0 0 .386-.176.822.822 0 0 0 .37-.7.99.99 0 0 0-.077-.397.941.941 0 0 0-.259-.331 2.3 2.3 0 0 0-.474-.298 7.322 7.322 0 0 0-.723-.298l-.485-.176a3.702 3.702 0 0 1-.645-.298 2.827 2.827 0 0 1-.59-.452 2.233 2.233 0 0 1-.436-.623 1.858 1.858 0 0 1-.171-.81 2.085 2.085 0 0 1 .7-1.572c.224-.202.493-.36.805-.474a3.02 3.02 0 0 1 1.042-.171c.397 0 .741.053 1.031.16.29.107.537.243.739.408a2.3 2.3 0 0 1 .491.546c.125.199.217.386.276.563l-1.312.551a1.404 1.404 0 0 0-.403-.596c-.195-.176-.462-.265-.799-.265-.324 0-.592.075-.805.226a.694.694 0 0 0-.32.59c0 .235.103.436.309.601.206.165.533.325.982.48l.496.165c.316.111.605.237.866.381.261.143.485.314.673.513a2.1 2.1 0 0 1 .43.678c.099.254.149.546.149.877 0 .412-.083.767-.248 1.064a2.283 2.283 0 0 1-.634.734 2.754 2.754 0 0 1-.872.43 3.463 3.463 0 0 1-.951.141zM321.394 439.168l4.004-4.985h-3.827v-1.412h5.559v1.5l-3.96 4.985h4.004v1.412h-5.779v-1.5zM328.409 432.771h1.489v7.897h-1.489v-7.897zM331.486 440.669v-7.897h2.779c.375 0 .726.061 1.053.182.327.121.612.292.855.513s.434.483.574.789c.14.305.209.642.209 1.009 0 .375-.07.715-.209 1.02-.14.305-.331.568-.574.789a2.593 2.593 0 0 1-.855.513 3.01 3.01 0 0 1-1.053.182h-1.29v2.901h-1.489zm2.802-4.313c.389 0 .684-.111.882-.331a1.1 1.1 0 0 0 .298-.761c0-.14-.024-.276-.072-.408a.928.928 0 0 0-.221-.347 1.08 1.08 0 0 0-.37-.237 1.387 1.387 0 0 0-.518-.089h-1.312v2.173h1.313z" style="fill:#fff"/></g><g style="opacity:.61"><path d="M300.133 433.27h9.067v2.242h-9.067v-2.242zm0 3.866h9.067v2.243h-9.067v-2.243z" style="fill:#fff"/></g><g style="opacity:.61"><path d="M156.756 478.878h1.607c1.263 0 2.114.812 2.114 1.974 0 1.161-.851 1.973-2.114 1.973h-1.607v-3.947zm1.584 3.586c1.049 0 1.725-.665 1.725-1.612 0-.947-.677-1.613-1.725-1.613h-1.167v3.225h1.167zM165.139 480.851c0-1.15.879-2.007 2.075-2.007 1.184 0 2.069.851 2.069 2.007 0 1.156-.885 2.007-2.069 2.007-1.195 0-2.075-.856-2.075-2.007zm3.727 0c0-.942-.705-1.635-1.652-1.635-.953 0-1.663.693-1.663 1.635 0 .941.71 1.635 1.663 1.635.948 0 1.652-.693 1.652-1.635zM179.596 478.878l-1.331 3.947h-.44l-1.156-3.366-1.161 3.366h-.434l-1.331-3.947h.429l1.139 3.394 1.178-3.394h.389l1.161 3.411 1.156-3.411h.401zM187.731 478.878v3.947h-.344l-2.537-3.202v3.202h-.417v-3.947h.344l2.543 3.203v-3.203h.411zM193.093 478.878h.417v3.586h2.21v.361h-2.627v-3.947zM200.061 480.851c0-1.15.879-2.007 2.075-2.007 1.184 0 2.069.851 2.069 2.007 0 1.156-.885 2.007-2.069 2.007-1.195 0-2.075-.856-2.075-2.007zm3.727 0c0-.942-.705-1.635-1.652-1.635-.953 0-1.663.693-1.663 1.635 0 .941.71 1.635 1.663 1.635.947 0 1.652-.693 1.652-1.635zM211.636 481.77h-2.199l-.474 1.054h-.434l1.804-3.947h.412l1.804 3.947h-.44l-.473-1.054zm-.152-.338-.947-2.12-.947 2.12h1.894zM217.28 478.878h1.607c1.263 0 2.114.812 2.114 1.974 0 1.161-.851 1.973-2.114 1.973h-1.607v-3.947zm1.584 3.586c1.049 0 1.725-.665 1.725-1.612 0-.947-.677-1.613-1.725-1.613h-1.167v3.225h1.167zM234.041 481.77h-2.199l-.474 1.054h-.434l1.804-3.947h.412l1.804 3.947h-.44l-.473-1.054zm-.152-.338-.947-2.12-.947 2.12h1.894zM239.685 478.878h.417v3.586h2.21v.361h-2.627v-3.947zM247.082 478.878h.417v3.586h2.21v.361h-2.627v-3.947zM260.449 479.239v1.551h2.041v.361h-2.041v1.675h-.417v-3.947h2.706v.361h-2.289zM267.678 478.878h.417v3.947h-.417v-3.947zM273.456 478.878h.417v3.586h2.21v.361h-2.627v-3.947zM283.644 482.464v.361h-2.791v-3.947h2.706v.361h-2.289v1.404h2.041v.355h-2.041v1.466h2.374zM294.672 479.239v1.551h2.041v.361h-2.041v1.675h-.417v-3.947h2.706v.361h-2.289zM301.5 480.851c0-1.15.879-2.007 2.075-2.007 1.184 0 2.069.851 2.069 2.007 0 1.156-.885 2.007-2.069 2.007-1.196 0-2.075-.856-2.075-2.007zm3.726 0c0-.942-.705-1.635-1.652-1.635-.953 0-1.663.693-1.663 1.635 0 .941.71 1.635 1.663 1.635.948 0 1.652-.693 1.652-1.635zM313.351 482.825l-.902-1.269a2.884 2.884 0 0 1-.316.017h-1.06v1.252h-.417v-3.947h1.477c1.004 0 1.613.507 1.613 1.353 0 .62-.327 1.054-.902 1.24l.964 1.353h-.457zm-.023-2.594c0-.632-.417-.992-1.207-.992h-1.048v1.979h1.048c.79 0 1.207-.367 1.207-.987zM322.907 478.878v3.947h-.4v-3.158l-1.551 2.656h-.197l-1.551-2.639v3.14h-.4v-3.947h.344l1.714 2.926 1.697-2.926h.344zM330.744 481.77h-2.199l-.473 1.054h-.434l1.804-3.947h.411l1.804 3.947h-.44l-.473-1.054zm-.152-.338-.947-2.12-.947 2.12h1.894zM336.957 479.239h-1.387v-.361h3.192v.361h-1.387v3.586h-.417v-3.586zM343.063 482.346l.164-.321c.282.276.784.479 1.302.479.739 0 1.06-.31 1.06-.699 0-1.083-2.43-.417-2.43-1.877 0-.581.451-1.083 1.455-1.083.446 0 .908.13 1.224.35l-.141.333a2.03 2.03 0 0 0-1.083-.327c-.722 0-1.043.321-1.043.716 0 1.083 2.43.429 2.43 1.866 0 .581-.462 1.077-1.472 1.077-.592-.002-1.173-.21-1.466-.514z" style="fill:#fff"/></g><path d="M475 241.439c0-81.074-100.726-147.162-224.988-147.162-124.256 0-224.983 66.087-224.983 147.162 0 2.091-.029 7.878-.029 8.616 0 86.005 88.043 155.668 224.979 155.668 137.79 0 225.021-69.644 225.021-155.652v-8.632z" style="fill:#273577"/><path d="M466.386 241.367c0 76.431-96.855 138.391-216.334 138.391-119.481 0-216.326-61.96-216.326-138.391 0-76.439 96.846-138.402 216.326-138.402 119.478-.001 216.334 61.962 216.334 138.402z" style="fill:#3fb6e9"/><path d="M178.222 197.702c-.116.217-2.274 2.451-.876 4.246 3.419 4.361 13.959 6.861 24.621 4.471 6.35-1.427 14.484-7.902 22.372-14.155 8.542-6.79 17.021-13.585 25.542-16.288 9.022-2.87 14.801-1.64 18.619-.483 4.193 1.25 9.117 4.006 16.976 9.905 14.803 11.127 74.33 63.08 84.609 72.064 8.281-3.744 45.087-19.588 95.112-30.617-4.343-26.667-20.57-51.063-45.171-71.043-34.282 14.401-76.189 21.916-117.168 1.904-.208-.086-22.388-10.585-44.266-10.067-32.508.753-46.589 14.826-61.499 29.722l-18.871 20.341z" style="fill:#fff"/><path d="M367.666 263.11c-.696-.621-69.99-61.249-85.682-73.048-9.085-6.811-14.139-8.551-19.445-9.225-2.761-.358-6.579.154-9.244.885-7.302 1.986-16.85 8.371-25.326 15.092-8.78 6.989-17.052 13.574-24.734 15.293-9.806 2.199-21.788-.396-27.254-4.093-2.218-1.489-3.776-3.208-4.526-4.958-2.016-4.684 1.71-8.427 2.32-9.055l19.12-20.681a410.988 410.988 0 0 1 6.751-6.624c-6.171.803-11.872 2.379-17.422 3.925-6.927 1.949-13.59 3.8-20.332 3.798-2.816 0-17.897-2.473-20.756-3.252-17.305-4.735-32.491-9.348-55.178-19.937-27.178 20.234-45.359 45.536-50.608 73.405 3.903 1.033 10.199 2.905 12.84 3.493 61.514 13.678 80.675 27.769 84.149 30.707 3.763-4.182 9.189-6.835 15.249-6.835 6.809.008 12.941 3.429 16.667 8.713 3.526-2.781 8.384-5.158 14.664-5.156 2.851 0 5.814.528 8.801 1.542 6.935 2.381 10.516 7.001 12.379 11.181a20.53 20.53 0 0 1 8.56-1.816c3.311 0 6.756.756 10.23 2.259 11.34 4.866 13.11 16.008 12.078 24.408.808-.097 1.62-.133 2.446-.133 13.446.006 24.381 10.937 24.381 24.391a24.19 24.19 0 0 1-2.914 11.512c3.657 2.058 12.985 6.715 21.174 5.677 6.541-.83 9.024-3.062 9.917-4.321.609-.863 1.253-1.872.649-2.596l-17.354-19.283s-2.86-2.702-1.914-3.748c.98-1.072 2.74.464 3.993 1.514 8.835 7.377 19.62 18.513 19.62 18.513.179.116.899 1.524 4.886 2.238 3.436.615 9.508.261 13.719-3.191a21.23 21.23 0 0 0 3.01-3.089c-.066.046-.127.126-.191.155 4.437-5.684-.493-11.43-.493-11.43l-20.266-22.753s-2.894-2.679-1.913-3.758c.884-.934 2.749.476 4.016 1.532 6.42 5.365 15.487 14.465 24.169 22.973 1.693 1.246 9.336 5.961 19.442-.679 6.141-4.019 7.371-8.966 7.197-12.695-.427-4.936-4.28-8.456-4.28-8.456l-27.681-27.826s-2.923-2.501-1.884-3.764c.837-1.06 2.743.47 3.984 1.514 8.821 7.377 32.691 29.259 32.691 29.259.333.242 8.582 6.112 18.775-.375 3.645-2.329 5.973-5.843 6.17-9.92.346-7.079-4.65-11.282-4.65-11.282z" style="fill:#fff"/><path d="M233.409 298.388c-4.292-.052-8.989 2.499-9.604 2.129-.336-.226.264-1.948.667-2.94.412-.992 6.064-18-7.713-23.905-10.543-4.53-16.983.565-19.202 2.866-.583.607-.841.555-.908-.215-.211-3.058-1.58-11.345-10.685-14.117-13.002-3.988-21.364 5.094-23.486 8.367-.948-7.411-7.218-13.165-14.894-13.173-8.339-.008-15.101 6.748-15.113 15.088-.002 8.336 6.756 15.097 15.098 15.097 4.051.013 7.729-1.611 10.437-4.211.084.074.119.219.075.507-.635 3.733-1.803 17.304 12.403 22.824 5.7 2.209 10.545.569 14.561-2.249 1.201-.847 1.392-.493 1.221.638-.514 3.491.136 10.96 10.61 15.204 7.971 3.236 12.686-.081 15.777-2.934 1.343-1.23 1.711-1.027 1.781.87.38 10.102 8.769 18.117 18.955 18.124 10.494.006 18.995-8.479 19.005-18.964.007-10.498-8.495-18.89-18.985-19.006z" style="fill:#fff"/><path d="M370.342 255.855c-21.341-18.631-70.668-61.513-84.026-71.544-7.635-5.739-12.84-8.77-17.409-10.132-2.056-.62-4.895-1.326-8.551-1.329-3.402 0-7.049.614-10.859 1.827-8.632 2.731-17.233 9.569-25.555 16.178l-.427.34c-7.753 6.159-15.762 12.533-21.823 13.886a36.822 36.822 0 0 1-8.081.906c-6.785-.011-12.886-1.967-15.174-4.886-.377-.481-.133-1.263.748-2.386l.116-.149 18.775-20.235c14.71-14.705 28.6-28.589 60.572-29.327a61.108 61.108 0 0 1 1.601-.022c19.898.012 39.795 8.922 42.025 9.954 18.665 9.099 37.925 13.724 57.292 13.742 20.179.006 40.998-4.99 62.891-15.071-2.444-2.059-4.993-4.056-7.608-6.022-19.231 8.338-37.554 12.553-55.227 12.546-18.056-.014-36.102-4.351-53.615-12.897-.921-.441-22.892-10.798-45.747-10.811-.597 0-1.209.013-1.807.02-26.857.627-41.987 10.168-52.157 18.522-9.896.238-18.433 2.626-26.027 4.747-6.777 1.883-12.631 3.519-18.341 3.514-2.348 0-6.582-.215-6.964-.228-6.565-.201-39.633-8.312-65.942-18.27a174.162 174.162 0 0 0-7.789 5.863c27.483 11.268 60.931 19.983 71.486 20.667 2.934.192 6.066.524 9.198.531 6.983 0 13.947-1.962 20.698-3.847 3.981-1.121 8.38-2.337 12.999-3.223a387.856 387.856 0 0 0-3.695 3.681l-19.082 20.635c-1.505 1.515-4.758 5.562-2.612 10.543.855 2.01 2.589 3.932 5.013 5.569 4.55 3.059 12.69 5.129 20.251 5.135 2.866.001 5.579-.285 8.078-.847 7.994-1.795 16.384-8.473 25.268-15.538 7.081-5.629 17.142-12.77 24.845-14.868 2.148-.588 4.789-.948 6.918-.948.632.005 1.23.024 1.792.102 5.086.647 10.007 2.378 18.79 8.97 15.655 11.763 84.957 72.382 85.633 72.983.052.039 4.465 3.851 4.158 10.187-.165 3.53-2.127 6.671-5.535 8.85-2.958 1.872-6.012 2.828-9.099 2.828-4.631-.01-7.819-2.18-8.024-2.327-.256-.207-23.998-21.979-32.732-29.29-1.395-1.153-2.744-2.189-4.115-2.189a2.247 2.247 0 0 0-1.812.853c-1.375 1.694.165 4.038 1.977 5.58l27.738 27.876c.035.033 3.451 3.24 3.827 7.514.217 4.622-1.989 8.483-6.582 11.5-3.274 2.151-6.591 3.247-9.833 3.247-4.256 0-7.246-1.942-7.906-2.4l-3.982-3.922c-7.27-7.156-14.777-14.55-20.272-19.138-1.34-1.114-2.771-2.139-4.137-2.139-.67 0-1.28.249-1.747.739-.628.698-1.061 1.951.499 4.027a13.693 13.693 0 0 0 1.398 1.561l20.243 22.727c.168.203 4.172 4.959.452 9.703l-.71.905a19.293 19.293 0 0 1-1.882 1.81c-3.451 2.837-8.064 3.143-9.888 3.143-.98 0-1.923-.087-2.744-.232-1.992-.36-3.335-.917-3.981-1.688l-.25-.249c-1.105-1.149-11.306-11.56-19.747-18.606-1.113-.932-2.499-2.11-3.935-2.11-.707 0-1.342.278-1.826.818-1.673 1.832.841 4.563 1.902 5.568l17.262 19.033c-.021.174-.241.57-.658 1.172-.618.847-2.711 2.94-8.975 3.736-.748.091-1.522.133-2.285.133-6.46 0-13.344-3.133-16.896-5.017a25.643 25.643 0 0 0 2.453-10.943c.009-14.208-11.529-25.76-25.737-25.772-.301 0-.623.012-.931.023.467-6.487-.449-18.768-13.057-24.178-3.625-1.572-7.246-2.369-10.764-2.369-2.752 0-5.399.47-7.896 1.427-2.607-5.075-6.945-8.771-12.605-10.703-3.123-1.081-6.235-1.628-9.238-1.628-5.246 0-10.08 1.541-14.392 4.607-4.129-5.131-10.372-8.177-16.942-8.177-5.745 0-11.277 2.303-15.374 6.359-5.37-4.102-26.685-17.641-83.726-30.592-2.763-.625-9.104-2.444-12.99-3.581a92.105 92.105 0 0 0-1.459 9.361s10.523 2.52 12.593 2.982c58.271 12.943 77.525 26.404 80.781 28.945a21.97 21.97 0 0 0-1.681 8.386c-.006 12.032 9.784 21.84 21.831 21.853 1.352 0 2.688-.116 4.008-.36 1.813 8.856 7.609 15.573 16.47 19.016 2.586.998 5.207 1.507 7.777 1.507a19.903 19.903 0 0 0 4.972-.619c1.636 4.158 5.321 9.336 13.551 12.676 2.882 1.166 5.77 1.774 8.576 1.774 2.291 0 4.533-.399 6.669-1.195 3.945 9.609 13.327 15.979 23.795 15.979 6.933.006 13.593-2.818 18.451-7.818 4.153 2.315 12.935 6.489 21.797 6.508 1.148 0 2.227-.081 3.299-.215 8.806-1.114 12.907-4.551 14.788-7.231.336-.466.644-.963.905-1.474 2.082.592 4.367 1.079 6.985 1.085 4.808 0 9.421-1.636 14.09-5.034 4.581-3.313 7.84-8.05 8.307-12.092.008-.052.023-.116.029-.174a23.28 23.28 0 0 0 4.712.487c4.95 0 9.816-1.549 14.47-4.592 8.977-5.887 10.537-13.577 10.389-18.604 1.572.329 3.178.499 4.77.499 4.651 0 9.215-1.404 13.565-4.176 5.562-3.555 8.911-9.001 9.415-15.341.354-4.309-.716-8.653-2.987-12.386 15.038-6.479 49.413-19.02 89.89-28.141-.243-3.138-.696-6.237-1.256-9.322-48.975 10.869-85.52 26.684-94.677 30.759zm-136.933 79.149c-9.511-.01-17.242-7.394-17.59-16.811-.029-.812-.111-2.959-1.926-2.959-.748 0-1.395.447-2.143 1.12-2.09 1.942-4.755 3.909-8.644 3.909-1.769 0-3.68-.406-5.701-1.236-10.044-4.065-10.18-10.966-9.769-13.738.108-.743.145-1.508-.362-2.112l-.614-.551h-.63c-.514 0-1.035.209-1.749.714-2.908 2.035-5.692 3.027-8.526 3.027-1.557 0-3.155-.313-4.761-.928-13.222-5.15-12.175-17.631-11.532-21.389.099-.758-.092-1.35-.577-1.741l-.934-.77-.873.839a13.615 13.615 0 0 1-9.494 3.841c-7.571-.006-13.735-6.164-13.73-13.732.006-7.58 6.173-13.728 13.751-13.72 6.843 0 12.671 5.147 13.547 11.984l.467 3.686 2.024-3.116c.23-.368 5.777-8.759 15.981-8.748 1.939 0 3.943.313 5.961.936 8.131 2.483 9.508 9.856 9.723 12.927.145 1.793 1.418 1.874 1.668 1.874.702 0 1.221-.441 1.586-.83a13.865 13.865 0 0 1 10.111-4.261c2.389.004 4.938.569 7.569 1.704 12.927 5.545 7.064 21.969 6.993 22.143-1.113 2.721-1.153 3.922-.11 4.617l.51.238h.371c.586 0 1.311-.25 2.506-.656 1.76-.609 4.417-1.526 6.898-1.52h.006c9.732.11 17.644 8.028 17.639 17.647-.011 9.719-7.927 17.612-17.646 17.612z" style="fill:#273577"/></svg>