<svg xmlns="http://www.w3.org/2000/svg" xml:space="preserve" id="PSE" x="0" y="0" style="enable-background:new 0 0 188.25 187.833" version="1.1" viewBox="0 0 188.25 187.833"><style>.st1{fill:#fff}.st2{fill:#fdb718}.st3{fill:none;stroke:#fff;stroke-miterlimit:10}</style><radialGradient id="Circle_2_" cx="96.011" cy="357.583" r="93.155" fx="45.827" fy="353.899" gradientTransform="translate(0 -264)" gradientUnits="userSpaceOnUse"><stop offset=".316" style="stop-color:#2d5ca8"/><stop offset=".531" style="stop-color:#285496"/><stop offset=".729" style="stop-color:#1f4272"/><stop offset="1" style="stop-color:#0d2d4d"/></radialGradient><ellipse id="Circle_1_" cx="94.345" cy="93.917" rx="93.157" ry="93.153" style="fill:url(#Circle_2_)"/><g id="PSE_1_"><path d="M119.47 71H97.417c-.099 0-.198-.014-.295.006-3.509.761-10.122 4.348-10.088 12.182C86.852 86.202 88.172 91 94.475 93h15.72c.696 0 4.989.982 4.704 8.47-.288 7.549-6.724 8.53-7.65 9.53H82.891c-.768 0-1.391.732-1.391 1.5s.623 1.5 1.391 1.5h24.492c.079 0 .157-.366.235-.38 3.344-.572 9.749-4.002 10.062-12.207.404-10.611-7.273-11.281-7.351-11.286.011-.003-15.516-.045-15.516-.045-5.301-.97-5.015-6.598-4.999-6.843.002-.034.003.054.003.02C89.76 76.152 96.514 74 97.581 74h21.89c.768 0 1.391-.732 1.391-1.5-.001-.768-.624-1.5-1.392-1.5zM153.047 70.843c-.127-.036-.259.157-.391.157h-16.478c-7.459 0-10.828 8.637-10.967 9.014-.023.061-.04.016-.055.08-.171.773-4.187 18.937-4.052 24.934.129 5.642 5.875 7.693 8.895 8.016.05.006.1-.043.151-.043h22.908c.778 0 1.41-.722 1.41-1.5s-.631-1.5-1.41-1.5h-22.822c-.717 0-6.212-.838-6.311-5.205-.053-2.344.614-6.83 1.418-11.362l31.881-.238a1.396 1.396 0 0 0 1.377-1.153c.062-.35 1.494-8.503 1.494-13.392-.001-5.817-6.76-7.724-7.048-7.808zm2.967 19.571-30.154.252c.926-4.913 1.868-8.94 2.027-9.663.322-.805 3.088-7.004 8.291-7.004h16.255c.88 0 4.842 1.556 4.842 4.853 0 3.605-.866 9.106-1.261 11.562zM82.84 79.444C83.667 73.817 76.56 71 75.23 71h-.004c-5.739 0-14.433.197-15.34.166-.121-.013-.246.067-.372.086-3.554.566-8.38 5.143-9.93 9.377l.024.029c-.155.472-.291 1.2-.498 2.294a1344.41 1344.41 0 0 0-1.021 5.485 7870.97 7870.97 0 0 0-3.039 16.613c-2.2 12.079-4.384 24.158-4.384 24.158a1.372 1.372 0 0 0 1.35 1.617 1.37 1.37 0 0 0 1.347-1.128c.924-5.106 2.439-13.468 3.957-21.805 3.579 4.515 8.031 4.989 8.254 5.01.055.006.11.01.167.005l14.091-.403c.121-.003.239-.022.354-.057 6.685-2.005 8.695-8.903 8.778-9.196a1.48 1.48 0 0 0 .033-.15l3.825-23.429c.01-.05.011-.178.018-.228zm-2.736-.053-3.797 23.176c-.198.621-1.944 5.659-6.739 7.201l-13.8.394c-.636-.089-4.942-.881-7.732-6.195 2.032-11.153 3.898-21.318 4.139-22.397 1.279-3.436 5.416-7.128 7.737-7.525.526.032 1.245.033 2.24.035a3535.965 3535.965 0 0 0 12.762-.023c1.628-.012 5.586 2.751 5.19 5.334z" class="st1"/></g><g id="Figures"><ellipse cx="19.366" cy="66.019" class="st2" rx="3.923" ry="4.185"/><path d="M15.405 52.808c0-1.839-1.119-3.384-2.665-3.945a92.797 92.797 0 0 0-3.614 7.272c.658.531 1.468.858 2.356.858 2.167 0 3.923-1.874 3.923-4.185zM7.484 66.019a4.315 4.315 0 0 0-1.115-2.916 92.452 92.452 0 0 0-2.151 7.03c1.852-.335 3.266-2.043 3.266-4.114z" class="st2"/><ellipse cx="19.913" cy="117.005" class="st2" rx="3.923" ry="4.185"/><path d="M6.055 117.005c0-1.745-1.215-3.174-2.79-3.412.446 2.067.957 4.11 1.538 6.124a3.525 3.525 0 0 0 1.252-2.712zM15.387 130.652c0-2.311-1.756-4.185-3.923-4.185-1.547 0-2.871.963-3.51 2.35a92.48 92.48 0 0 0 2.635 5.906c.282.069.573.113.875.113 2.166.001 3.923-1.873 3.923-4.184zM22.046 104h-7.867c-.51-1-1.971-2.721-3.715-2.721-2.167 0-3.923 1.964-3.923 4.275 0 2.311 1.756 4.266 3.923 4.266 1.744 0 3.205-.821 3.715-2.821h8.845l8.251-15H44v-2H23.14l-8.575-15H3.076a95.56 95.56 0 0 0-.561 3h10.803l7.018 12H1.25a94.54 94.54 0 0 0-.062 2H28.87L22.046 104z" class="st2"/></g><g id="ach_1_"><path d="M54.233 58.499h4.206s1.233.363 1.015 1.813l-.798 5.584h-4.424s-1.958-.725-.943-2.828c0 0 .925-1.124 1.741-1.124l4.052.136M66.997 58.499H62.79s-1.45.725-1.813 2.611c0 0-.979 2.756.181 4.786l.49.109H65.6M69.426 55.108l-.611 3.391-1.365 7.578M68.561 59.91s.503-.995 1.373-1.412c0 0 3.173-.308 3.735.49 0 0 .635.308.598 1.215l-.979 5.693" class="st3"/></g></svg>